<svg xmlns="http://www.w3.org/2000/svg" version="1.1" xmlns:xlink="http://www.w3.org/1999/xlink" width="1000" height="1000"><metadata><rdf:RDF xmlns:rdf="http://www.w3.org/1999/02/22-rdf-syntax-ns#" xmlns:dc="http://purl.org/dc/elements/1.1/"><rdf:Description><dc:creator>RealFaviconGenerator</dc:creator><dc:source>https://realfavicongenerator.net</dc:source></rdf:Description></rdf:RDF></metadata><style>
    #light-icon {
      display: inline;
    }
    #dark-icon {
      display: none;
    }

    @media (prefers-color-scheme: dark) {
      #light-icon {
        display: none;
      }
      #dark-icon {
        display: inline;
      }
    }
  </style><g id="light-icon"><svg xmlns="http://www.w3.org/2000/svg" version="1.1" xmlns:xlink="http://www.w3.org/1999/xlink" width="1000" height="1000"><g><g transform="matrix(0.4166666666666667,0,0,0.4166666666666667,0,0)"><svg xmlns="http://www.w3.org/2000/svg" id="backstitch-logo" viewBox="0 0 2400 2400" width="2400" height="2400"><defs>

<style>
path {
          fill: #000;
        }

#needle-fill {
  visibility: hidden;
}
</style>
</defs><g id="needle">
      <path id="needle-fill" d="M893.63,1159.9c20.82-210.62,31.37-415.82,31.37-609.9,0-93.39-13.35-164.46-40.79-217.27-18.31-35.22-43.19-62.24-73.95-80.31-30.99-18.2-68.09-27.42-110.26-27.42s-79.27,9.23-110.26,27.42c-30.76,18.06-55.64,45.08-73.95,80.31-27.45,52.81-40.79,123.88-40.79,217.27,0,194.07,10.56,399.27,31.37,609.9,16.65,168.43,39.85,340.69,68.98,512.02,49.62,291.88,98.43,476.78,100.48,484.51,2.91,10.94,12.84,18.58,24.16,18.58s21.26-7.64,24.16-18.58c2.05-7.73,50.86-192.62,100.48-484.51,29.13-171.32,52.34-343.59,68.98-512.02Z"></path>
      <path id="eye" d="M651.39,438.65c-4.92,21.89-6.54,43.97-7.38,66.22-.44,9.58-.17,23.4-.26,33.11.12,33.12.85,66.22,2.4,99.32,1.04,22.07,2.42,44.14,4.65,66.22,2.3,22.91,20.44,41.83,44.23,44.23,27.17,2.75,51.43-17.06,54.17-44.23,2.23-22.07,3.61-44.14,4.65-66.22,1.55-33.1,2.27-66.2,2.4-99.32.19-33.17-.44-66.75-7.64-99.32-12.39-50.72-84.47-51.39-97.23,0Z"></path>
      <path id="needle-body" d="M906.39,321.2c-41.21-79.29-112.58-121.2-206.39-121.2s-165.18,41.91-206.39,121.2c-29.34,56.46-43.61,131.3-43.61,228.8,0,194.89,10.6,400.92,31.49,612.36,16.7,169,39.99,341.85,69.21,513.75,49.81,292.98,98.9,478.96,100.97,486.74,5.82,21.91,25.65,37.16,48.32,37.16s42.5-15.25,48.32-37.16c2.07-7.77,51.16-193.76,100.97-486.74,29.23-171.9,52.51-344.75,69.21-513.75,20.9-211.44,31.49-417.46,31.49-612.36,0-97.5-14.26-172.34-43.61-228.8ZM819.08,1151.67c-16.44,166.53-39.37,336.89-68.15,506.35-17.67,104.04-35.42,195.04-50.93,269.01-15.51-73.96-33.26-164.97-50.93-269.01-28.78-169.46-51.71-339.83-68.15-506.35-20.52-207.88-30.92-410.31-30.92-601.67,0-79.93,10.88-141.4,32.34-182.68,11.42-21.97,25.51-37.97,43.07-48.91,19.88-12.39,44.28-18.41,74.59-18.41s54.71,6.02,74.59,18.41c17.56,10.94,31.65,26.94,43.07,48.91,21.46,41.28,32.34,102.75,32.34,182.68,0,191.36-10.4,393.79-30.92,601.67Z"></path>
    </g><g id="thread">
      <path id="thread-10" d="M456.17,1716.42c-79.33,7.47-158.19,33.75-222.48,82.1-6.54,5.05-12.71,10-18.75,15.83-45.47,48.45,21.1,115.89,70.13,71.29,8.05-7.23,19.75-15.49,30.23-21.84,42.28-25.75,90.95-41.01,140.37-46.75,6.1-.72,12.2-1.29,18.3-1.73-5.86-31.35-11.82-64.36-17.8-98.89Z"></path>
      <path id="thread-9" d="M1026.84,2029.81c-9.43,0-18.96-2.66-27.43-8.23-8.28-5.45-16.56-10.92-24.86-16.41-70-46.27-142.38-94.11-224.29-131.13-25.16-11.37-36.34-40.99-24.97-66.15,11.37-25.16,40.99-36.34,66.16-24.97,89.19,40.31,164.96,90.4,238.24,138.83,8.24,5.45,16.46,10.88,24.67,16.28,23.07,15.17,29.47,46.18,14.3,69.25-9.61,14.6-25.56,22.53-41.82,22.53Z"></path>
      <path id="thread-8" d="M1500,2200c-116,0-219.95-24.21-327.13-76.19-24.85-12.05-35.22-41.96-23.17-66.81,12.05-24.85,41.96-35.22,66.81-23.17,93.08,45.14,183.16,66.16,283.49,66.16,92.21,0,178.05-13.8,255.13-41.01,26.04-9.2,54.6,4.46,63.79,30.5,9.19,26.04-4.46,54.6-30.5,63.79-87.8,31-184.83,46.71-288.42,46.71Z"></path>
      <path id="thread-7" d="M1945.01,2063.16c-14.98,0-29.8-6.7-39.65-19.49-16.85-21.88-12.78-53.27,9.1-70.12,59.43-45.79,105.76-101.71,137.68-166.21,31.75-64.15,47.85-133.91,47.85-207.34,0-36.78-2.59-72.51-7.7-106.2-4.14-27.3,14.64-52.79,41.94-56.93,27.3-4.14,52.79,14.64,56.93,41.94,5.86,38.64,8.83,79.41,8.83,121.19,0,88.96-19.59,173.64-58.23,251.7-38.74,78.26-94.68,145.91-166.28,201.07-9.09,7-19.83,10.39-30.48,10.39Z"></path>
      <path id="thread-6" d="M2081.78,1349.33c-17.97,0-35.33-9.71-44.28-26.71-25.75-48.9-59.65-92.61-100.76-129.9-38.23-34.68-82.89-64.06-132.74-87.32-90.6-42.27-198.54-63.75-303.93-60.5-.52.02-1.05.02-1.57.02-26.9,0-49.11-21.38-49.95-48.46-.85-27.6,20.83-50.67,48.43-51.52,58.35-1.8,117.19,2.89,174.87,13.95,61.57,11.8,120.25,30.6,174.42,55.88,58.94,27.5,111.99,62.45,157.65,103.88,49.78,45.16,90.84,98.11,122.05,157.37,12.87,24.43,3.49,54.67-20.94,67.54-7.43,3.91-15.4,5.77-23.25,5.77Z"></path>
      <path id="thread-5" d="M1356.98,1399.78c-27.82,0-54.26-2.49-79.07-7.46-47.72-9.55-87.16-27.85-117.21-54.38-39.71-35.04-60.69-82.74-60.69-137.94,0-92.71,69.06-171.73,189.46-216.78,25.87-9.68,54.67,3.44,64.35,29.31,9.68,25.86-3.44,54.67-29.31,64.35-37.44,14.01-124.51,54.05-124.51,123.13,0,26.42,8.79,47.01,26.87,62.97,27.04,23.87,73.99,36.75,130.55,36.75,16.52,0,33.84-1.1,51.74-3.34,27.4-3.43,52.39,16,55.83,43.4,3.43,27.4-16,52.39-43.4,55.83-22.23,2.78-43.8,4.18-64.61,4.18Z"></path>
      <path id="thread-4" d="M1603.79,1339.2c-18.63,0-36.51-10.45-45.11-28.37-11.95-24.89-1.46-54.76,23.43-66.72,90.36-43.39,167.04-106.94,221.75-183.78,63.8-89.6,96.14-194.01,96.14-310.34,0-4.48-.05-8.99-.14-13.41-.59-27.61,21.3-50.47,48.91-51.07.37,0,.73-.01,1.1-.01,27.11,0,49.38,21.68,49.97,48.92.11,5.14.17,10.38.17,15.57,0,70.7-10.48,138.84-31.15,202.53-19.19,59.13-47.29,114.91-83.53,165.81-64.49,90.57-154.37,165.23-259.92,215.92-6.98,3.35-14.35,4.94-21.61,4.94Z"></path>
      <path id="thread-3" d="M1914.37,593.26c-20.26,0-39.33-12.41-46.84-32.51-29.74-79.55-79.42-145.69-143.69-191.25-64.13-45.47-141.54-69.5-223.84-69.5-15.88,0-31.72.54-47.1,1.61-1.18.08-2.35.12-3.51.12-26.04,0-48-20.17-49.83-46.54-1.91-27.55,18.88-51.43,46.42-53.34,17.67-1.22,35.84-1.85,54.01-1.85,209.38,0,386.1,124.82,461.2,325.74,9.67,25.87-3.46,54.67-29.33,64.34-5.77,2.16-11.68,3.18-17.5,3.18Z"></path>
      <path id="thread-2" d="M1304.13,276.21c-9.82-25.81-38.71-38.77-64.52-28.94-77.39,29.46-146.2,70.28-211.81,112.64,8.91,32.63,15.12,68.29,18.65,107.28,74.76-49.31,146.62-95.21,228.73-126.46,25.81-9.82,38.77-38.71,28.94-64.52Z"></path>
      <path id="thread-1" d="M285.06,514.36c52.21,44.06,124.31,66.39,193.33,70.64,54.22,3.19,108-4,160.75-18.31,26.64-7.27,54.13,8.44,61.4,35.08,7.27,26.64-8.44,54.13-35.08,61.4-55.17,15.08-113.45,23.53-171.19,22.53-91.66-1.75-184.65-27.81-259.07-83.07-4.91-3.7-9.66-7.51-14.37-11.58-.84-.77-2.67-2.35-3.51-3.14-21.71-18.74-23.27-52.52-2.96-72.96,19.37-19.69,51.02-19.94,70.71-.58h0Z"></path>
    </g></svg></g></g></svg></g><g id="dark-icon"><svg xmlns="http://www.w3.org/2000/svg" version="1.1" xmlns:xlink="http://www.w3.org/1999/xlink" width="1000" height="1000"><g><g transform="matrix(0.4166666666666667,0,0,0.4166666666666667,0,0)"><svg xmlns="http://www.w3.org/2000/svg" id="backstitch-logo" viewBox="0 0 2400 2400" width="2400" height="2400"><defs>

<style>
path {
          fill: #D4D4D4;
        }

#needle-fill {
  visibility: hidden;
}
</style>
</defs><g id="needle">
      <path id="needle-fill" d="M893.63,1159.9c20.82-210.62,31.37-415.82,31.37-609.9,0-93.39-13.35-164.46-40.79-217.27-18.31-35.22-43.19-62.24-73.95-80.31-30.99-18.2-68.09-27.42-110.26-27.42s-79.27,9.23-110.26,27.42c-30.76,18.06-55.64,45.08-73.95,80.31-27.45,52.81-40.79,123.88-40.79,217.27,0,194.07,10.56,399.27,31.37,609.9,16.65,168.43,39.85,340.69,68.98,512.02,49.62,291.88,98.43,476.78,100.48,484.51,2.91,10.94,12.84,18.58,24.16,18.58s21.26-7.64,24.16-18.58c2.05-7.73,50.86-192.62,100.48-484.51,29.13-171.32,52.34-343.59,68.98-512.02Z"></path>
      <path id="eye" d="M651.39,438.65c-4.92,21.89-6.54,43.97-7.38,66.22-.44,9.58-.17,23.4-.26,33.11.12,33.12.85,66.22,2.4,99.32,1.04,22.07,2.42,44.14,4.65,66.22,2.3,22.91,20.44,41.83,44.23,44.23,27.17,2.75,51.43-17.06,54.17-44.23,2.23-22.07,3.61-44.14,4.65-66.22,1.55-33.1,2.27-66.2,2.4-99.32.19-33.17-.44-66.75-7.64-99.32-12.39-50.72-84.47-51.39-97.23,0Z"></path>
      <path id="needle-body" d="M906.39,321.2c-41.21-79.29-112.58-121.2-206.39-121.2s-165.18,41.91-206.39,121.2c-29.34,56.46-43.61,131.3-43.61,228.8,0,194.89,10.6,400.92,31.49,612.36,16.7,169,39.99,341.85,69.21,513.75,49.81,292.98,98.9,478.96,100.97,486.74,5.82,21.91,25.65,37.16,48.32,37.16s42.5-15.25,48.32-37.16c2.07-7.77,51.16-193.76,100.97-486.74,29.23-171.9,52.51-344.75,69.21-513.75,20.9-211.44,31.49-417.46,31.49-612.36,0-97.5-14.26-172.34-43.61-228.8ZM819.08,1151.67c-16.44,166.53-39.37,336.89-68.15,506.35-17.67,104.04-35.42,195.04-50.93,269.01-15.51-73.96-33.26-164.97-50.93-269.01-28.78-169.46-51.71-339.83-68.15-506.35-20.52-207.88-30.92-410.31-30.92-601.67,0-79.93,10.88-141.4,32.34-182.68,11.42-21.97,25.51-37.97,43.07-48.91,19.88-12.39,44.28-18.41,74.59-18.41s54.71,6.02,74.59,18.41c17.56,10.94,31.65,26.94,43.07,48.91,21.46,41.28,32.34,102.75,32.34,182.68,0,191.36-10.4,393.79-30.92,601.67Z"></path>
    </g><g id="thread">
      <path id="thread-10" d="M456.17,1716.42c-79.33,7.47-158.19,33.75-222.48,82.1-6.54,5.05-12.71,10-18.75,15.83-45.47,48.45,21.1,115.89,70.13,71.29,8.05-7.23,19.75-15.49,30.23-21.84,42.28-25.75,90.95-41.01,140.37-46.75,6.1-.72,12.2-1.29,18.3-1.73-5.86-31.35-11.82-64.36-17.8-98.89Z"></path>
      <path id="thread-9" d="M1026.84,2029.81c-9.43,0-18.96-2.66-27.43-8.23-8.28-5.45-16.56-10.92-24.86-16.41-70-46.27-142.38-94.11-224.29-131.13-25.16-11.37-36.34-40.99-24.97-66.15,11.37-25.16,40.99-36.34,66.16-24.97,89.19,40.31,164.96,90.4,238.24,138.83,8.24,5.45,16.46,10.88,24.67,16.28,23.07,15.17,29.47,46.18,14.3,69.25-9.61,14.6-25.56,22.53-41.82,22.53Z"></path>
      <path id="thread-8" d="M1500,2200c-116,0-219.95-24.21-327.13-76.19-24.85-12.05-35.22-41.96-23.17-66.81,12.05-24.85,41.96-35.22,66.81-23.17,93.08,45.14,183.16,66.16,283.49,66.16,92.21,0,178.05-13.8,255.13-41.01,26.04-9.2,54.6,4.46,63.79,30.5,9.19,26.04-4.46,54.6-30.5,63.79-87.8,31-184.83,46.71-288.42,46.71Z"></path>
      <path id="thread-7" d="M1945.01,2063.16c-14.98,0-29.8-6.7-39.65-19.49-16.85-21.88-12.78-53.27,9.1-70.12,59.43-45.79,105.76-101.71,137.68-166.21,31.75-64.15,47.85-133.91,47.85-207.34,0-36.78-2.59-72.51-7.7-106.2-4.14-27.3,14.64-52.79,41.94-56.93,27.3-4.14,52.79,14.64,56.93,41.94,5.86,38.64,8.83,79.41,8.83,121.19,0,88.96-19.59,173.64-58.23,251.7-38.74,78.26-94.68,145.91-166.28,201.07-9.09,7-19.83,10.39-30.48,10.39Z"></path>
      <path id="thread-6" d="M2081.78,1349.33c-17.97,0-35.33-9.71-44.28-26.71-25.75-48.9-59.65-92.61-100.76-129.9-38.23-34.68-82.89-64.06-132.74-87.32-90.6-42.27-198.54-63.75-303.93-60.5-.52.02-1.05.02-1.57.02-26.9,0-49.11-21.38-49.95-48.46-.85-27.6,20.83-50.67,48.43-51.52,58.35-1.8,117.19,2.89,174.87,13.95,61.57,11.8,120.25,30.6,174.42,55.88,58.94,27.5,111.99,62.45,157.65,103.88,49.78,45.16,90.84,98.11,122.05,157.37,12.87,24.43,3.49,54.67-20.94,67.54-7.43,3.91-15.4,5.77-23.25,5.77Z"></path>
      <path id="thread-5" d="M1356.98,1399.78c-27.82,0-54.26-2.49-79.07-7.46-47.72-9.55-87.16-27.85-117.21-54.38-39.71-35.04-60.69-82.74-60.69-137.94,0-92.71,69.06-171.73,189.46-216.78,25.87-9.68,54.67,3.44,64.35,29.31,9.68,25.86-3.44,54.67-29.31,64.35-37.44,14.01-124.51,54.05-124.51,123.13,0,26.42,8.79,47.01,26.87,62.97,27.04,23.87,73.99,36.75,130.55,36.75,16.52,0,33.84-1.1,51.74-3.34,27.4-3.43,52.39,16,55.83,43.4,3.43,27.4-16,52.39-43.4,55.83-22.23,2.78-43.8,4.18-64.61,4.18Z"></path>
      <path id="thread-4" d="M1603.79,1339.2c-18.63,0-36.51-10.45-45.11-28.37-11.95-24.89-1.46-54.76,23.43-66.72,90.36-43.39,167.04-106.94,221.75-183.78,63.8-89.6,96.14-194.01,96.14-310.34,0-4.48-.05-8.99-.14-13.41-.59-27.61,21.3-50.47,48.91-51.07.37,0,.73-.01,1.1-.01,27.11,0,49.38,21.68,49.97,48.92.11,5.14.17,10.38.17,15.57,0,70.7-10.48,138.84-31.15,202.53-19.19,59.13-47.29,114.91-83.53,165.81-64.49,90.57-154.37,165.23-259.92,215.92-6.98,3.35-14.35,4.94-21.61,4.94Z"></path>
      <path id="thread-3" d="M1914.37,593.26c-20.26,0-39.33-12.41-46.84-32.51-29.74-79.55-79.42-145.69-143.69-191.25-64.13-45.47-141.54-69.5-223.84-69.5-15.88,0-31.72.54-47.1,1.61-1.18.08-2.35.12-3.51.12-26.04,0-48-20.17-49.83-46.54-1.91-27.55,18.88-51.43,46.42-53.34,17.67-1.22,35.84-1.85,54.01-1.85,209.38,0,386.1,124.82,461.2,325.74,9.67,25.87-3.46,54.67-29.33,64.34-5.77,2.16-11.68,3.18-17.5,3.18Z"></path>
      <path id="thread-2" d="M1304.13,276.21c-9.82-25.81-38.71-38.77-64.52-28.94-77.39,29.46-146.2,70.28-211.81,112.64,8.91,32.63,15.12,68.29,18.65,107.28,74.76-49.31,146.62-95.21,228.73-126.46,25.81-9.82,38.77-38.71,28.94-64.52Z"></path>
      <path id="thread-1" d="M285.06,514.36c52.21,44.06,124.31,66.39,193.33,70.64,54.22,3.19,108-4,160.75-18.31,26.64-7.27,54.13,8.44,61.4,35.08,7.27,26.64-8.44,54.13-35.08,61.4-55.17,15.08-113.45,23.53-171.19,22.53-91.66-1.75-184.65-27.81-259.07-83.07-4.91-3.7-9.66-7.51-14.37-11.58-.84-.77-2.67-2.35-3.51-3.14-21.71-18.74-23.27-52.52-2.96-72.96,19.37-19.69,51.02-19.94,70.71-.58h0Z"></path>
    </g></svg></g></g></svg></g></svg>