<?xml version="1.0" encoding="UTF-8"?>
<svg id="Layer_2" height="52" data-name="Layer 2" xmlns="http://www.w3.org/2000/svg" viewBox="0 0 443.84 102.42">
  <defs>
    <style>
      .cls-1 {
        fill: #f89a1c;
      }

      .cls-2 {
        fill: none;
        stroke: #f89a1c;
        stroke-miterlimit: 10;
        stroke-width: 8px;
      }
    </style>
  </defs>
  <g id="Layer_4" data-name="Layer 4">
    <rect class="cls-2" x="4" y="4" width="435.84" height="94.42" rx="19.46" ry="19.46"/>
    <g>
      <path class="cls-1" d="M171.87,25.13c.9-.13,1.91-.23,3.04-.32,1.13-.08,2.29-.15,3.49-.19,1.19-.04,2.36-.07,3.49-.1,1.13-.02,2.14-.03,3.04-.03,3.97,0,7.36,.56,10.18,1.66,2.82,1.11,5.1,2.67,6.85,4.67,1.75,2.01,3.03,4.39,3.84,7.17,.81,2.77,1.22,5.82,1.22,9.15,0,3.03-.38,5.95-1.15,8.77-.77,2.82-2.05,5.31-3.84,7.49-1.79,2.18-4.15,3.93-7.07,5.25-2.92,1.32-6.54,1.98-10.85,1.98-.68,0-1.59-.02-2.72-.06-1.13-.04-2.3-.1-3.52-.16-1.22-.06-2.38-.13-3.49-.19-1.11-.06-1.94-.14-2.5-.22V25.13Zm13.76,7.17c-.94,0-1.89,.02-2.85,.06-.96,.04-1.67,.11-2.14,.19v30.02c.17,.04,.46,.08,.86,.1,.4,.02,.84,.04,1.31,.06,.47,.02,.92,.04,1.34,.06,.43,.02,.75,.03,.96,.03,2.47,0,4.53-.44,6.18-1.31,1.64-.87,2.94-2.04,3.9-3.49,.96-1.45,1.63-3.12,2.02-5.02,.38-1.9,.58-3.85,.58-5.86,0-1.75-.17-3.51-.51-5.28-.34-1.77-.97-3.36-1.89-4.77-.92-1.41-2.17-2.56-3.74-3.46-1.58-.9-3.58-1.34-6.02-1.34Z"/>
      <path class="cls-1" d="M212.57,28.91c0-1.24,.46-2.29,1.38-3.17,.92-.87,2.19-1.31,3.81-1.31s2.93,.44,3.94,1.31c1,.88,1.5,1.93,1.5,3.17s-.5,2.27-1.5,3.1c-1,.83-2.31,1.25-3.94,1.25s-2.89-.42-3.81-1.25c-.92-.83-1.38-1.87-1.38-3.1Zm1.22,9.02h8.32v32h-8.32V37.93Z"/>
      <path class="cls-1" d="M243.55,61.1c0-.85-.36-1.54-1.09-2.05-.73-.51-1.62-.98-2.69-1.41-1.07-.43-2.24-.86-3.52-1.31-1.28-.45-2.45-1.07-3.52-1.86-1.07-.79-1.96-1.79-2.69-3.01-.73-1.22-1.09-2.78-1.09-4.7,0-3.16,.94-5.57,2.82-7.23,1.88-1.66,4.59-2.5,8.13-2.5,2.43,0,4.63,.26,6.59,.77,1.96,.51,3.5,1.09,4.61,1.73l-1.86,6.02c-.98-.38-2.22-.79-3.71-1.22-1.49-.43-3.01-.64-4.54-.64-2.48,0-3.71,.96-3.71,2.88,0,.77,.36,1.39,1.09,1.86,.73,.47,1.62,.91,2.69,1.31,1.07,.41,2.24,.84,3.52,1.31,1.28,.47,2.45,1.08,3.52,1.82,1.07,.75,1.96,1.72,2.69,2.91,.73,1.19,1.09,2.73,1.09,4.61,0,3.24-1.03,5.79-3.1,7.65-2.07,1.86-5.17,2.78-9.31,2.78-2.26,0-4.38-.29-6.37-.86s-3.6-1.25-4.83-2.02l2.3-6.21c.98,.56,2.28,1.1,3.9,1.63,1.62,.53,3.28,.8,4.99,.8,1.24,0,2.23-.23,2.98-.7,.75-.47,1.12-1.26,1.12-2.37Z"/>
      <path class="cls-1" d="M279.96,67.95c-1.28,.94-2.83,1.65-4.64,2.14s-3.68,.74-5.6,.74c-2.56,0-4.73-.41-6.5-1.22-1.77-.81-3.21-1.95-4.32-3.42-1.11-1.47-1.91-3.25-2.4-5.34-.49-2.09-.74-4.39-.74-6.91,0-5.42,1.22-9.59,3.65-12.51,2.43-2.92,5.97-4.38,10.62-4.38,2.35,0,4.23,.19,5.66,.58,1.43,.38,2.72,.88,3.87,1.47l-1.98,6.78c-.98-.47-1.95-.83-2.91-1.09s-2.06-.38-3.3-.38c-2.3,0-4.05,.76-5.25,2.27-1.2,1.51-1.79,3.94-1.79,7.26,0,1.37,.15,2.62,.45,3.78,.3,1.15,.75,2.15,1.34,3.01,.6,.85,1.38,1.53,2.34,2.02,.96,.49,2.08,.74,3.36,.74,1.41,0,2.6-.18,3.58-.54,.98-.36,1.86-.8,2.62-1.31l1.92,6.34Z"/>
      <path class="cls-1" d="M282.39,53.93c0-5.42,1.32-9.59,3.97-12.51,2.65-2.92,6.36-4.38,11.14-4.38,2.56,0,4.78,.41,6.66,1.22,1.88,.81,3.43,1.95,4.67,3.42,1.24,1.47,2.16,3.25,2.78,5.34,.62,2.09,.93,4.4,.93,6.91,0,5.42-1.31,9.59-3.94,12.51-2.62,2.92-6.33,4.38-11.1,4.38-2.56,0-4.78-.41-6.66-1.22-1.88-.81-3.45-1.95-4.7-3.42-1.26-1.47-2.2-3.25-2.82-5.34-.62-2.09-.93-4.39-.93-6.91Zm8.58,0c0,1.41,.13,2.71,.38,3.9s.64,2.24,1.15,3.14c.51,.9,1.18,1.59,2.02,2.08,.83,.49,1.82,.74,2.98,.74,2.18,0,3.8-.79,4.86-2.37,1.07-1.58,1.6-4.07,1.6-7.49,0-2.94-.49-5.32-1.47-7.14-.98-1.81-2.65-2.72-4.99-2.72-2.05,0-3.65,.77-4.8,2.3-1.15,1.54-1.73,4.05-1.73,7.55Z"/>
      <path class="cls-1" d="M335.96,45.74c-1.32-.47-2.52-.7-3.58-.7-1.49,0-2.74,.4-3.74,1.18-1,.79-1.68,1.8-2.02,3.04v20.67h-8.32V37.93h6.46l.96,4.22h.26c.72-1.58,1.71-2.79,2.94-3.65,1.24-.85,2.69-1.28,4.35-1.28,1.11,0,2.37,.24,3.78,.7l-1.09,7.81Z"/>
      <path class="cls-1" d="M367.96,58.67c0,1.79,.02,3.58,.06,5.38,.04,1.79,.23,3.78,.58,5.95h-5.95l-1.15-4.16h-.26c-.85,1.49-2.08,2.7-3.68,3.62-1.6,.92-3.49,1.38-5.66,1.38-4.01,0-7.13-1.32-9.34-3.97-2.22-2.64-3.33-6.78-3.33-12.42s1.24-9.71,3.71-12.74c2.47-3.03,6.1-4.54,10.88-4.54,1.32,0,2.41,.07,3.26,.22,.85,.15,1.71,.39,2.56,.74v-12.99h8.32V58.67Zm-14.14,5.12c1.62,0,2.9-.39,3.84-1.18,.94-.79,1.6-1.93,1.98-3.42v-13.57c-.6-.47-1.26-.82-1.98-1.06-.73-.23-1.66-.35-2.82-.35-2.35,0-4.11,.79-5.28,2.37-1.17,1.58-1.76,4.29-1.76,8.13,0,2.73,.48,4.93,1.44,6.59s2.49,2.5,4.58,2.5Z"/>
    </g>
    <path class="cls-1" d="M139.75,26.89c-4.89-2.29-10.11-3.95-15.57-4.89-.67,1.21-1.45,2.84-1.99,4.14-5.81-.87-11.56-.87-17.26,0-.54-1.3-1.34-2.93-2.02-4.14-5.47,.95-10.7,2.61-15.58,4.91-9.86,14.89-12.53,29.42-11.19,43.73,6.54,4.88,12.87,7.85,19.1,9.79,1.54-2.12,2.91-4.37,4.09-6.74-2.25-.85-4.41-1.91-6.44-3.13,.54-.4,1.07-.82,1.58-1.25,12.42,5.81,25.91,5.81,38.19,0,.52,.43,1.04,.85,1.58,1.25-2.04,1.23-4.2,2.29-6.45,3.14,1.18,2.36,2.55,4.62,4.09,6.74,6.23-1.94,12.57-4.91,19.11-9.79,1.57-16.6-2.68-30.99-11.22-43.74Zm-38.74,34.94c-3.73,0-6.79-3.48-6.79-7.72s2.99-7.73,6.79-7.73,6.85,3.48,6.79,7.73c0,4.24-2.99,7.72-6.79,7.72Zm25.08,0c-3.73,0-6.79-3.48-6.79-7.72s2.99-7.73,6.79-7.73,6.85,3.48,6.79,7.73c0,4.24-2.99,7.72-6.79,7.72Z"/>
  </g>
</svg>