<?xml version="1.0" encoding="UTF-8"?>
<svg id="Layer_2" data-name="Layer 2" height="52" xmlns="http://www.w3.org/2000/svg" viewBox="0 0 443.84 102.42">
  <defs>
    <style>
      .cls-1 {
        fill: none;
        stroke: #ee2b59;
        stroke-miterlimit: 10;
        stroke-width: 8px;
      }

      .cls-2 {
        fill: #ee2b59;
      }
    </style>
  </defs>
  <g id="Layer_4" data-name="Layer 4">
    <rect class="cls-1" x="4" y="4" width="435.84" height="94.42" rx="19.46" ry="19.46"/>
    <g>
      <path class="cls-2" d="M91.01,46.84h16.7v19.97c-1.79,1.49-3.94,2.58-6.43,3.26s-4.96,1.02-7.39,1.02c-2.86,0-5.51-.45-7.97-1.34-2.45-.9-4.58-2.29-6.37-4.19s-3.2-4.32-4.22-7.26c-1.02-2.94-1.54-6.44-1.54-10.5s.61-7.82,1.82-10.78c1.22-2.97,2.82-5.38,4.8-7.23,1.98-1.86,4.21-3.2,6.69-4.03,2.47-.83,4.99-1.25,7.55-1.25s4.81,.19,6.75,.58c1.94,.38,3.49,.79,4.64,1.22l-1.79,7.36c-1.07-.43-2.26-.76-3.58-.99-1.32-.23-3.01-.35-5.06-.35-1.83,0-3.52,.28-5.06,.83-1.54,.55-2.87,1.46-4,2.72-1.13,1.26-2.01,2.87-2.62,4.83-.62,1.96-.93,4.35-.93,7.17s.3,5,.9,6.94c.6,1.94,1.43,3.54,2.5,4.8,1.07,1.26,2.31,2.19,3.74,2.78,1.43,.6,2.95,.9,4.58,.9,1.11,0,2.2-.14,3.26-.42,1.07-.28,1.96-.69,2.69-1.25v-8.45l-9.66-1.02v-5.31Z"/>
      <path class="cls-2" d="M139.59,67.45c-1.28,1.02-3.02,1.89-5.22,2.59-2.2,.7-4.53,1.06-7.01,1.06-5.16,0-8.94-1.5-11.33-4.51-2.39-3.01-3.58-7.14-3.58-12.38,0-5.63,1.34-9.86,4.03-12.67,2.69-2.82,6.46-4.22,11.33-4.22,1.62,0,3.2,.21,4.74,.64,1.54,.43,2.9,1.13,4.1,2.11,1.19,.98,2.15,2.3,2.88,3.97,.73,1.66,1.09,3.73,1.09,6.21,0,.9-.05,1.86-.16,2.88-.11,1.02-.27,2.09-.48,3.2h-19.14c.13,2.69,.82,4.71,2.07,6.08,1.25,1.37,3.29,2.05,6.09,2.05,1.74,0,3.31-.27,4.69-.8,1.38-.53,2.43-1.08,3.16-1.63l2.74,5.44Zm-11.88-23.49c-2.17,0-3.77,.65-4.81,1.95-1.04,1.3-1.67,3.04-1.88,5.22h11.84c.17-2.3-.18-4.07-1.05-5.31s-2.24-1.86-4.11-1.86Z"/>
      <path class="cls-2" d="M143.17,38.2h4.42v-6.02l8.32-2.37v8.38h7.81v7.04h-7.81v12.29c0,2.22,.22,3.81,.67,4.77,.45,.96,1.29,1.44,2.53,1.44,.85,0,1.59-.08,2.21-.26,.62-.17,1.31-.43,2.08-.77l1.47,6.4c-1.15,.55-2.5,1.02-4.03,1.41-1.54,.38-3.09,.58-4.67,.58-2.94,0-5.11-.76-6.5-2.27-1.39-1.51-2.08-4-2.08-7.46v-16.13h-4.42v-7.04Z"/>
      <path class="cls-2" d="M204.55,58.16c0-1.37-.5-2.47-1.5-3.33-1-.85-2.26-1.63-3.78-2.34-1.52-.7-3.16-1.43-4.93-2.18-1.77-.75-3.41-1.66-4.93-2.75-1.52-1.09-2.77-2.44-3.78-4.06-1-1.62-1.5-3.69-1.5-6.21,0-2.18,.36-4.06,1.09-5.66,.73-1.6,1.76-2.93,3.1-4,1.34-1.07,2.93-1.86,4.77-2.37,1.83-.51,3.88-.77,6.14-.77,2.6,0,5.06,.22,7.36,.67,2.3,.45,4.2,1.1,5.7,1.95l-2.75,7.36c-.94-.6-2.35-1.14-4.22-1.63-1.88-.49-3.9-.74-6.08-.74-2.05,0-3.62,.41-4.7,1.22-1.09,.81-1.63,1.9-1.63,3.26,0,1.28,.5,2.35,1.5,3.2,1,.85,2.26,1.64,3.78,2.37,1.51,.73,3.16,1.47,4.93,2.24s3.41,1.7,4.93,2.78,2.77,2.43,3.78,4.03c1,1.6,1.5,3.59,1.5,5.98s-.39,4.45-1.18,6.18c-.79,1.73-1.9,3.17-3.33,4.32-1.43,1.15-3.16,2.01-5.18,2.56-2.03,.55-4.26,.83-6.69,.83-3.2,0-6.02-.3-8.45-.9s-4.22-1.19-5.38-1.79l2.82-7.49c.47,.26,1.08,.53,1.82,.83,.75,.3,1.59,.58,2.53,.83,.94,.26,1.93,.47,2.98,.64,1.04,.17,2.12,.26,3.23,.26,2.6,0,4.6-.44,5.98-1.31,1.39-.87,2.08-2.21,2.08-4Z"/>
      <path class="cls-2" d="M215.62,38.2h4.42v-6.02l8.32-2.37v8.38h7.81v7.04h-7.81v12.29c0,2.22,.22,3.81,.67,4.77s1.29,1.44,2.53,1.44c.85,0,1.59-.08,2.21-.26,.62-.17,1.31-.43,2.08-.77l1.47,6.4c-1.15,.55-2.5,1.02-4.03,1.41-1.54,.38-3.09,.58-4.67,.58-2.94,0-5.11-.76-6.5-2.27s-2.08-4-2.08-7.46v-16.13h-4.42v-7.04Z"/>
      <path class="cls-2" d="M241.09,40.05c1.71-.77,3.73-1.38,6.08-1.82,2.35-.45,4.8-.67,7.36-.67,2.22,0,4.07,.27,5.57,.8,1.49,.53,2.68,1.29,3.55,2.27,.87,.98,1.49,2.16,1.86,3.52,.36,1.37,.54,2.9,.54,4.61,0,1.88-.06,3.77-.19,5.66-.13,1.9-.2,3.77-.22,5.6-.02,1.83,.03,3.62,.16,5.34,.13,1.73,.45,3.36,.96,4.9h-6.78l-1.34-4.42h-.32c-.85,1.32-2.04,2.46-3.55,3.42-1.52,.96-3.47,1.44-5.86,1.44-1.49,0-2.84-.22-4.03-.67s-2.22-1.09-3.07-1.92c-.85-.83-1.52-1.81-1.98-2.94-.47-1.13-.7-2.4-.7-3.81,0-1.96,.44-3.62,1.31-4.96,.87-1.34,2.13-2.43,3.78-3.26s3.61-1.41,5.89-1.73c2.28-.32,4.83-.42,7.65-.29,.3-2.39,.13-4.11-.51-5.15-.64-1.04-2.07-1.57-4.29-1.57-1.66,0-3.42,.17-5.28,.51-1.86,.34-3.38,.79-4.58,1.34l-1.98-6.21Zm10.56,23.81c1.66,0,2.99-.37,3.97-1.12,.98-.75,1.71-1.55,2.18-2.4v-4.16c-1.32-.13-2.59-.15-3.81-.06-1.22,.09-2.29,.28-3.23,.58-.94,.3-1.69,.73-2.24,1.28-.55,.55-.83,1.26-.83,2.11,0,1.2,.35,2.12,1.06,2.78,.7,.66,1.67,.99,2.91,.99Z"/>
      <path class="cls-2" d="M290.69,46c-1.32-.47-2.52-.7-3.58-.7-1.49,0-2.74,.4-3.74,1.18-1,.79-1.67,1.8-2.02,3.04v20.67h-8.32V38.2h6.46l.96,4.22h.26c.72-1.58,1.71-2.79,2.94-3.65s2.69-1.28,4.35-1.28c1.11,0,2.37,.24,3.78,.7l-1.09,7.81Z"/>
      <path class="cls-2" d="M294.08,38.2h4.42v-6.02l8.32-2.37v8.38h7.81v7.04h-7.81v12.29c0,2.22,.22,3.81,.67,4.77s1.29,1.44,2.53,1.44c.85,0,1.59-.08,2.21-.26,.62-.17,1.31-.43,2.08-.77l1.47,6.4c-1.15,.55-2.5,1.02-4.03,1.41-1.54,.38-3.09,.58-4.67,.58-2.94,0-5.11-.76-6.5-2.27s-2.08-4-2.08-7.46v-16.13h-4.42v-7.04Z"/>
      <path class="cls-2" d="M345.03,67.45c-1.28,1.02-3.02,1.89-5.22,2.59-2.2,.7-4.53,1.06-7.01,1.06-5.16,0-8.94-1.5-11.33-4.51-2.39-3.01-3.58-7.14-3.58-12.38,0-5.63,1.34-9.86,4.03-12.67,2.69-2.82,6.46-4.22,11.33-4.22,1.62,0,3.2,.21,4.74,.64,1.54,.43,2.9,1.13,4.1,2.11s2.15,2.3,2.88,3.97,1.09,3.73,1.09,6.21c0,.9-.05,1.86-.16,2.88-.11,1.02-.27,2.09-.48,3.2h-19.14c.13,2.69,.82,4.71,2.07,6.08,1.25,1.37,3.28,2.05,6.09,2.05,1.74,0,3.31-.27,4.69-.8,1.38-.53,2.43-1.08,3.16-1.63l2.74,5.44Zm-11.88-23.49c-2.17,0-3.77,.65-4.81,1.95-1.04,1.3-1.67,3.04-1.88,5.22h11.84c.17-2.3-.18-4.07-1.05-5.31-.87-1.24-2.24-1.86-4.11-1.86Z"/>
      <path class="cls-2" d="M379.14,58.93c0,1.79,.02,3.58,.06,5.38,.04,1.79,.23,3.78,.58,5.95h-5.95l-1.15-4.16h-.26c-.85,1.49-2.08,2.7-3.68,3.62-1.6,.92-3.49,1.38-5.66,1.38-4.01,0-7.13-1.32-9.34-3.97-2.22-2.64-3.33-6.78-3.33-12.42s1.24-9.71,3.71-12.74c2.47-3.03,6.1-4.54,10.88-4.54,1.32,0,2.41,.07,3.26,.22,.85,.15,1.71,.39,2.56,.74v-12.99h8.32V58.93Zm-14.14,5.12c1.62,0,2.9-.39,3.84-1.18,.94-.79,1.6-1.93,1.98-3.42v-13.57c-.6-.47-1.26-.82-1.98-1.06-.73-.23-1.66-.35-2.82-.35-2.35,0-4.11,.79-5.28,2.37-1.17,1.58-1.76,4.29-1.76,8.13,0,2.73,.48,4.93,1.44,6.59s2.49,2.5,4.58,2.5Z"/>
    </g>
  </g>
</svg>